<svg width="42" height="42" viewBox="0 0 42 42" fill="none" xmlns="http://www.w3.org/2000/svg">
<g id="thumbs-up">
<rect width="42" height="42" rx="6" fill="url(#paint0_linear_123_50996)"/>
<path id="Vector" d="M14.9126 19.7997L19.7125 8.99976C20.6673 8.99976 21.583 9.37904 22.2581 10.0542C22.9332 10.7293 23.3125 11.645 23.3125 12.5997V17.3997H30.1045C30.4523 17.3958 30.7969 17.4675 31.1143 17.61C31.4317 17.7524 31.7144 17.9622 31.9427 18.2247C32.171 18.4872 32.3395 18.7963 32.4365 19.1304C32.5335 19.4645 32.5567 19.8157 32.5044 20.1597L30.8485 30.9596C30.7617 31.5319 30.471 32.0535 30.0299 32.4284C29.5889 32.8033 29.0273 33.0061 28.4485 32.9996H14.9126M14.9126 19.7997V32.9996M14.9126 19.7997H11.3126C10.6761 19.7997 10.0656 20.0525 9.61554 20.5026C9.16545 20.9527 8.9126 21.5632 8.9126 22.1997V30.5996C8.9126 31.2361 9.16545 31.8466 9.61554 32.2967C10.0656 32.7467 10.6761 32.9996 11.3126 32.9996H14.9126" stroke="white" stroke-width="2.39998" stroke-linecap="round" stroke-linejoin="round"/>
</g>
<defs>
<linearGradient id="paint0_linear_123_50996" x1="4.42542e-07" y1="42" x2="42" y2="4.42542e-07" gradientUnits="userSpaceOnUse">
<stop stop-color="#2563EB"/>
<stop offset="0.5" stop-color="#DB2777"/>
<stop offset="1" stop-color="#DC2626"/>
</linearGradient>
</defs>
</svg>
